<svg xmlns="http://www.w3.org/2000/svg" xmlns:v="https://svgstorm.com"
viewBox = "0 0 512 512"
width="512"
height="512">
<g fill="None" fill-opacity="0.0" stroke="#000000" stroke-opacity="0.00" stroke-width="0.3"><path d="
M 0.00 512.00 
L 512.00 512.00
L 512.00 0.00
L 0.00 0.00
L 0.00 512.00
M 65.00 380.00 
C 79.36 369.92 95.07 359.50 108.92 349.91 C 122.77 340.33 140.02 330.49 152.77 320.43 C 165.52 310.37 189.58 308.35 207.70 312.35 C 225.81 316.35 235.79 338.51 257.00 337.00 C 278.22 335.49 288.14 317.99 305.10 305.10 C 322.05 292.20 336.45 277.88 352.92 263.91 C 369.39 249.95 379.71 240.96 401.67 240.67 C 423.63 240.37 438.21 246.47 454.00 262.00
C 455.57 246.62 451.80 218.42 454.21 206.77 C 456.62 195.11 479.29 192.86 483.75 205.25 C 488.20 217.65 484.25 243.22 485.00 260.00 C 485.75 276.78 485.94 304.66 486.00 321.00 C 486.06 337.34 483.74 350.22 482.20 363.25 C 480.66 376.28 478.90 385.97 475.65 396.70 C 472.40 407.42 467.50 415.31 462.42 424.77 C 457.35 434.23 448.70 444.24 438.75 452.19 C 428.80 460.15 422.67 465.30 412.25 469.26 C 401.83 473.23 394.64 477.14 382.25 479.26 C 369.85 481.39 363.67 483.57 349.77 484.77 C 335.87 485.98 314.83 485.72 297.00 486.00 C 279.17 486.28 253.09 485.68 235.00 486.00 C 216.91 486.32 191.81 485.81 175.98 485.02 C 160.14 484.24 151.25 482.90 138.70 480.29 C 126.15 477.67 116.72 476.82 107.25 472.61 C 97.77 468.39 88.84 464.31 79.75 458.20 C 70.66 452.09 59.56 439.91 53.43 431.23 C 47.30 422.55 43.38 414.22 39.81 403.75 C 36.23 393.28 32.25 384.47 30.09 371.90 C 27.94 359.33 28.58 352.24 27.21 336.77 C 25.85 321.30 25.75 295.95 26.00 278.00 C 26.25 260.05 25.57 233.82 26.00 216.00 C 26.43 198.18 25.64 176.95 27.07 162.93 C 28.51 148.90 30.00 142.40 32.40 130.25 C 34.80 118.11 38.20 110.47 42.39 100.25 C 46.58 90.02 51.34 82.98 59.19 72.75 C 67.04 62.51 79.11 54.91 87.75 49.61 C 96.40 44.30 105.37 39.58 115.77 36.43 C 126.16 33.27 136.04 31.43 148.25 29.80 C 160.45 28.17 171.83 26.38 188.00 27.00 C 204.17 27.62 233.41 26.35 250.00 27.00 C 266.59 27.65 288.28 22.12 292.19 37.25 C 296.11 52.37 286.75 60.08 270.00 59.00 C 253.25 57.92 225.22 59.95 208.00 59.00 C 190.78 58.05 171.17 59.44 157.75 60.80 C 144.34 62.17 136.42 63.66 124.75 67.76 C 113.09 71.86 107.09 73.22 97.25 80.39 C 87.40 87.56 78.97 99.03 74.61 107.75 C 70.24 116.48 65.80 125.37 63.41 137.75 C 61.02 150.13 60.23 156.55 59.35 171.70 C 58.48 186.85 59.01 212.04 59.00 230.00 C 58.99 247.96 58.77 274.02 59.00 292.00 C 59.23 309.98 58.11 331.87 59.20 346.25 C 60.29 360.62 62.76 367.09 65.00 380.00
M 400.00 81.00 
C 400.72 100.33 399.03 129.67 400.00 148.00 C 400.97 166.33 401.92 187.89 383.00 187.00 C 364.08 186.10 368.56 167.38 368.00 149.00 C 367.44 130.62 368.42 100.45 368.00 81.00
C 355.75 93.72 343.92 108.53 330.75 96.25 C 317.57 83.98 331.87 69.67 344.75 59.75 C 357.64 49.83 368.57 27.64 383.25 26.80 C 397.92 25.97 409.62 47.81 421.75 58.25 C 433.89 68.69 450.62 81.19 438.76 94.77 C 426.91 108.35 411.26 95.18 400.00 81.00
M 183.00 112.00 
C 204.27 109.77 218.91 116.41 233.25 128.75 C 247.58 141.10 250.02 158.73 250.20 177.25 C 250.37 195.76 235.94 208.95 222.75 220.19 C 209.56 231.44 188.57 230.26 172.70 225.29 C 156.82 220.32 142.61 206.99 136.87 191.08 C 131.13 175.18 132.66 154.57 141.57 141.23 C 150.48 127.89 166.69 113.71 183.00 112.00 Z"/>
</g>
<g fill="None" fill-opacity="0.0" stroke="#000000" stroke-opacity="0.98" stroke-width="0.3"><path d="
M 65.00 380.00 
C 62.76 367.09 60.29 360.62 59.20 346.25 C 58.11 331.87 59.23 309.98 59.00 292.00 C 58.77 274.02 58.99 247.96 59.00 230.00 C 59.01 212.04 58.48 186.85 59.35 171.70 C 60.23 156.55 61.02 150.13 63.41 137.75 C 65.80 125.37 70.24 116.48 74.61 107.75 C 78.97 99.03 87.40 87.56 97.25 80.39 C 107.09 73.22 113.09 71.86 124.75 67.76 C 136.42 63.66 144.34 62.17 157.75 60.80 C 171.17 59.44 190.78 58.05 208.00 59.00 C 225.22 59.95 253.25 57.92 270.00 59.00 C 286.75 60.08 296.11 52.37 292.19 37.25 C 288.28 22.12 266.59 27.65 250.00 27.00 C 233.41 26.35 204.17 27.62 188.00 27.00 C 171.83 26.38 160.45 28.17 148.25 29.80 C 136.04 31.43 126.16 33.27 115.77 36.43 C 105.37 39.58 96.40 44.30 87.75 49.61 C 79.11 54.91 67.04 62.51 59.19 72.75 C 51.34 82.98 46.58 90.02 42.39 100.25 C 38.20 110.47 34.80 118.11 32.40 130.25 C 30.00 142.40 28.51 148.90 27.07 162.93 C 25.64 176.95 26.43 198.18 26.00 216.00 C 25.57 233.82 26.25 260.05 26.00 278.00 C 25.75 295.95 25.85 321.30 27.21 336.77 C 28.58 352.24 27.94 359.33 30.09 371.90 C 32.25 384.47 36.23 393.28 39.81 403.75 C 43.38 414.22 47.30 422.55 53.43 431.23 C 59.56 439.91 70.66 452.09 79.75 458.20 C 88.84 464.31 97.77 468.39 107.25 472.61 C 116.72 476.82 126.15 477.67 138.70 480.29 C 151.25 482.90 160.14 484.24 175.98 485.02 C 191.81 485.81 216.91 486.32 235.00 486.00 C 253.09 485.68 279.17 486.28 297.00 486.00 C 314.83 485.72 335.87 485.98 349.77 484.77 C 363.67 483.57 369.85 481.39 382.25 479.26 C 394.64 477.14 401.83 473.23 412.25 469.26 C 422.67 465.30 428.80 460.15 438.75 452.19 C 448.70 444.24 457.35 434.23 462.42 424.77 C 467.50 415.31 472.40 407.42 475.65 396.70 C 478.90 385.97 480.66 376.28 482.20 363.25 C 483.74 350.22 486.06 337.34 486.00 321.00 C 485.94 304.66 485.75 276.78 485.00 260.00 C 484.25 243.22 488.20 217.65 483.75 205.25 C 479.29 192.86 456.62 195.11 454.21 206.77 C 451.80 218.42 455.57 246.62 454.00 262.00
C 438.21 246.47 423.63 240.37 401.67 240.67 C 379.71 240.96 369.39 249.95 352.92 263.91 C 336.45 277.88 322.05 292.20 305.10 305.10 C 288.14 317.99 278.22 335.49 257.00 337.00 C 235.79 338.51 225.81 316.35 207.70 312.35 C 189.58 308.35 165.52 310.37 152.77 320.43 C 140.02 330.49 122.77 340.33 108.92 349.91 C 95.07 359.50 79.36 369.92 65.00 380.00
M 77.00 411.00 
C 83.54 405.53 90.47 402.08 97.25 397.20 C 104.03 392.32 110.18 387.90 117.25 383.81 C 124.33 379.72 130.36 373.65 137.30 369.30 C 144.25 364.96 150.71 360.62 157.75 356.61 C 164.80 352.60 170.01 345.58 177.30 343.29 C 184.59 340.99 196.91 341.58 202.77 345.58 C 208.63 349.57 217.26 356.76 223.75 360.39 C 230.25 364.02 237.05 368.02 246.25 368.80 C 255.44 369.58 267.17 369.70 275.25 366.81 C 283.32 363.91 288.96 360.85 296.10 355.10 C 303.24 349.35 310.73 342.00 317.90 335.90 C 325.08 329.80 332.46 323.79 339.70 317.70 C 346.94 311.61 354.04 304.78 361.30 298.30 C 368.56 291.82 376.65 287.59 383.25 280.81 C 389.86 274.03 396.36 271.67 406.67 272.33 C 416.98 273.00 421.80 276.03 428.90 283.10 C 436.00 290.17 444.07 294.47 450.90 302.10 C 457.73 309.73 452.66 331.77 452.93 341.08 C 453.20 350.38 450.66 359.27 449.81 367.25 C 448.95 375.23 445.84 383.84 443.61 391.75 C 441.37 399.67 436.35 405.86 431.77 412.77 C 427.19 419.68 420.14 428.42 412.70 432.71 C 405.26 437.01 399.64 440.81 391.70 443.71 C 383.76 446.62 375.79 447.70 367.25 449.60 C 358.71 451.51 352.56 451.43 341.92 452.07 C 331.27 452.71 314.62 454.57 301.00 454.00 C 287.38 453.43 268.10 454.30 254.00 454.00 C 239.90 453.70 220.54 454.22 207.00 454.00 C 193.46 453.78 176.90 453.60 166.31 452.35 C 155.71 451.11 150.01 451.48 141.25 449.60 C 132.48 447.73 125.30 445.41 117.25 442.61 C 109.19 439.80 104.88 435.79 97.25 431.61 C 89.62 427.42 83.74 415.85 77.00 411.00 Z"/>
</g>
<g fill="None" fill-opacity="0.0" stroke="#000000" stroke-opacity="1.00" stroke-width="0.3"><path d="
M 400.00 81.00 
C 411.26 95.18 426.91 108.35 438.76 94.77 C 450.62 81.19 433.89 68.69 421.75 58.25 C 409.62 47.81 397.92 25.97 383.25 26.80 C 368.57 27.64 357.64 49.83 344.75 59.75 C 331.87 69.67 317.57 83.98 330.75 96.25 C 343.92 108.53 355.75 93.72 368.00 81.00
C 368.42 100.45 367.44 130.62 368.00 149.00 C 368.56 167.38 364.08 186.10 383.00 187.00 C 401.92 187.89 400.97 166.33 400.00 148.00 C 399.03 129.67 400.72 100.33 400.00 81.00 Z"/>
</g>
<g fill="None" fill-opacity="0.0" stroke="#000000" stroke-opacity="0.98" stroke-width="0.3"><path d="
M 183.00 112.00 
C 166.69 113.71 150.48 127.89 141.57 141.23 C 132.66 154.57 131.13 175.18 136.87 191.08 C 142.61 206.99 156.82 220.32 172.70 225.29 C 188.57 230.26 209.56 231.44 222.75 220.19 C 235.94 208.95 250.37 195.76 250.20 177.25 C 250.02 158.73 247.58 141.10 233.25 128.75 C 218.91 116.41 204.27 109.77 183.00 112.00
M 186.00 144.00 
C 205.31 141.68 224.20 158.65 217.94 179.08 C 211.67 199.52 186.88 201.55 173.25 188.75 C 159.62 175.95 166.19 146.38 186.00 144.00 Z"/>
</g>
<g fill="None" fill-opacity="0.0" stroke="#000000" stroke-opacity="0.02" stroke-width="0.3"><path d="
M 186.00 144.00 
C 166.19 146.38 159.62 175.95 173.25 188.75 C 186.88 201.55 211.67 199.52 217.94 179.08 C 224.20 158.65 205.31 141.68 186.00 144.00 Z"/>
</g>
<g fill="None" fill-opacity="0.0" stroke="#000000" stroke-opacity="0.01" stroke-width="0.3"><path d="
M 77.00 411.00 
C 83.74 415.85 89.62 427.42 97.25 431.61 C 104.88 435.79 109.19 439.80 117.25 442.61 C 125.30 445.41 132.48 447.73 141.25 449.60 C 150.01 451.48 155.71 451.11 166.31 452.35 C 176.90 453.60 193.46 453.78 207.00 454.00 C 220.54 454.22 239.90 453.70 254.00 454.00 C 268.10 454.30 287.38 453.43 301.00 454.00 C 314.62 454.57 331.27 452.71 341.92 452.07 C 352.56 451.43 358.71 451.51 367.25 449.60 C 375.79 447.70 383.76 446.62 391.70 443.71 C 399.64 440.81 405.26 437.01 412.70 432.71 C 420.14 428.42 427.19 419.68 431.77 412.77 C 436.35 405.86 441.37 399.67 443.61 391.75 C 445.84 383.84 448.95 375.23 449.81 367.25 C 450.66 359.27 453.20 350.38 452.93 341.08 C 452.66 331.77 457.73 309.73 450.90 302.10 C 444.07 294.47 436.00 290.17 428.90 283.10 C 421.80 276.03 416.98 273.00 406.67 272.33 C 396.36 271.67 389.86 274.03 383.25 280.81 C 376.65 287.59 368.56 291.82 361.30 298.30 C 354.04 304.78 346.94 311.61 339.70 317.70 C 332.46 323.79 325.08 329.80 317.90 335.90 C 310.73 342.00 303.24 349.35 296.10 355.10 C 288.96 360.85 283.32 363.91 275.25 366.81 C 267.17 369.70 255.44 369.58 246.25 368.80 C 237.05 368.02 230.25 364.02 223.75 360.39 C 217.26 356.76 208.63 349.57 202.77 345.58 C 196.91 341.58 184.59 340.99 177.30 343.29 C 170.01 345.58 164.80 352.60 157.75 356.61 C 150.71 360.62 144.25 364.96 137.30 369.30 C 130.36 373.65 124.33 379.72 117.25 383.81 C 110.18 387.90 104.03 392.32 97.25 397.20 C 90.47 402.08 83.54 405.53 77.00 411.00 Z"/>
</g>
<g fill="#000000" fill-opacity="0.00" stroke="None">
<path d="
M 0.00 512.00 
L 512.00 512.00
L 512.00 0.00
L 0.00 0.00
L 0.00 512.00
M 65.00 380.00 
C 79.36 369.92 95.07 359.50 108.92 349.91 C 122.77 340.33 140.02 330.49 152.77 320.43 C 165.52 310.37 189.58 308.35 207.70 312.35 C 225.81 316.35 235.79 338.51 257.00 337.00 C 278.22 335.49 288.14 317.99 305.10 305.10 C 322.05 292.20 336.45 277.88 352.92 263.91 C 369.39 249.95 379.71 240.96 401.67 240.67 C 423.63 240.37 438.21 246.47 454.00 262.00
C 455.57 246.62 451.80 218.42 454.21 206.77 C 456.62 195.11 479.29 192.86 483.75 205.25 C 488.20 217.65 484.25 243.22 485.00 260.00 C 485.75 276.78 485.94 304.66 486.00 321.00 C 486.06 337.34 483.74 350.22 482.20 363.25 C 480.66 376.28 478.90 385.97 475.65 396.70 C 472.40 407.42 467.50 415.31 462.42 424.77 C 457.35 434.23 448.70 444.24 438.75 452.19 C 428.80 460.15 422.67 465.30 412.25 469.26 C 401.83 473.23 394.64 477.14 382.25 479.26 C 369.85 481.39 363.67 483.57 349.77 484.77 C 335.87 485.98 314.83 485.72 297.00 486.00 C 279.17 486.28 253.09 485.68 235.00 486.00 C 216.91 486.32 191.81 485.81 175.98 485.02 C 160.14 484.24 151.25 482.90 138.70 480.29 C 126.15 477.67 116.72 476.82 107.25 472.61 C 97.77 468.39 88.84 464.31 79.75 458.20 C 70.66 452.09 59.56 439.91 53.43 431.23 C 47.30 422.55 43.38 414.22 39.81 403.75 C 36.23 393.28 32.25 384.47 30.09 371.90 C 27.94 359.33 28.58 352.24 27.21 336.77 C 25.85 321.30 25.75 295.95 26.00 278.00 C 26.25 260.05 25.57 233.82 26.00 216.00 C 26.43 198.18 25.64 176.95 27.07 162.93 C 28.51 148.90 30.00 142.40 32.40 130.25 C 34.80 118.11 38.20 110.47 42.39 100.25 C 46.58 90.02 51.34 82.98 59.19 72.75 C 67.04 62.51 79.11 54.91 87.75 49.61 C 96.40 44.30 105.37 39.58 115.77 36.43 C 126.16 33.27 136.04 31.43 148.25 29.80 C 160.45 28.17 171.83 26.38 188.00 27.00 C 204.17 27.62 233.41 26.35 250.00 27.00 C 266.59 27.65 288.28 22.12 292.19 37.25 C 296.11 52.37 286.75 60.08 270.00 59.00 C 253.25 57.92 225.22 59.95 208.00 59.00 C 190.78 58.05 171.17 59.44 157.75 60.80 C 144.34 62.17 136.42 63.66 124.75 67.76 C 113.09 71.86 107.09 73.22 97.25 80.39 C 87.40 87.56 78.97 99.03 74.61 107.75 C 70.24 116.48 65.80 125.37 63.41 137.75 C 61.02 150.13 60.23 156.55 59.35 171.70 C 58.48 186.85 59.01 212.04 59.00 230.00 C 58.99 247.96 58.77 274.02 59.00 292.00 C 59.23 309.98 58.11 331.87 59.20 346.25 C 60.29 360.62 62.76 367.09 65.00 380.00
M 400.00 81.00 
C 400.72 100.33 399.03 129.67 400.00 148.00 C 400.97 166.33 401.92 187.89 383.00 187.00 C 364.08 186.10 368.56 167.38 368.00 149.00 C 367.44 130.62 368.42 100.45 368.00 81.00
C 355.75 93.72 343.92 108.53 330.75 96.25 C 317.57 83.98 331.87 69.67 344.75 59.75 C 357.64 49.83 368.57 27.64 383.25 26.80 C 397.92 25.97 409.62 47.81 421.75 58.25 C 433.89 68.69 450.62 81.19 438.76 94.77 C 426.91 108.35 411.26 95.18 400.00 81.00
M 183.00 112.00 
C 204.27 109.77 218.91 116.41 233.25 128.75 C 247.58 141.10 250.02 158.73 250.20 177.25 C 250.37 195.76 235.94 208.95 222.75 220.19 C 209.56 231.44 188.57 230.26 172.70 225.29 C 156.82 220.32 142.61 206.99 136.87 191.08 C 131.13 175.18 132.66 154.57 141.57 141.23 C 150.48 127.89 166.69 113.71 183.00 112.00 Z"/>
</g>
<g fill="#000000" fill-opacity="0.98" stroke="None">
<path d="
M 65.00 380.00 
C 62.76 367.09 60.29 360.62 59.20 346.25 C 58.11 331.87 59.23 309.98 59.00 292.00 C 58.77 274.02 58.99 247.96 59.00 230.00 C 59.01 212.04 58.48 186.85 59.35 171.70 C 60.23 156.55 61.02 150.13 63.41 137.75 C 65.80 125.37 70.24 116.48 74.61 107.75 C 78.97 99.03 87.40 87.56 97.25 80.39 C 107.09 73.22 113.09 71.86 124.75 67.76 C 136.42 63.66 144.34 62.17 157.75 60.80 C 171.17 59.44 190.78 58.05 208.00 59.00 C 225.22 59.95 253.25 57.92 270.00 59.00 C 286.75 60.08 296.11 52.37 292.19 37.25 C 288.28 22.12 266.59 27.65 250.00 27.00 C 233.41 26.35 204.17 27.62 188.00 27.00 C 171.83 26.38 160.45 28.17 148.25 29.80 C 136.04 31.43 126.16 33.27 115.77 36.43 C 105.37 39.58 96.40 44.30 87.75 49.61 C 79.11 54.91 67.04 62.51 59.19 72.75 C 51.34 82.98 46.58 90.02 42.39 100.25 C 38.20 110.47 34.80 118.11 32.40 130.25 C 30.00 142.40 28.51 148.90 27.07 162.93 C 25.64 176.95 26.43 198.18 26.00 216.00 C 25.57 233.82 26.25 260.05 26.00 278.00 C 25.75 295.95 25.85 321.30 27.21 336.77 C 28.58 352.24 27.94 359.33 30.09 371.90 C 32.25 384.47 36.23 393.28 39.81 403.75 C 43.38 414.22 47.30 422.55 53.43 431.23 C 59.56 439.91 70.66 452.09 79.75 458.20 C 88.84 464.31 97.77 468.39 107.25 472.61 C 116.72 476.82 126.15 477.67 138.70 480.29 C 151.25 482.90 160.14 484.24 175.98 485.02 C 191.81 485.81 216.91 486.32 235.00 486.00 C 253.09 485.68 279.17 486.28 297.00 486.00 C 314.83 485.72 335.87 485.98 349.77 484.77 C 363.67 483.57 369.85 481.39 382.25 479.26 C 394.64 477.14 401.83 473.23 412.25 469.26 C 422.67 465.30 428.80 460.15 438.75 452.19 C 448.70 444.24 457.35 434.23 462.42 424.77 C 467.50 415.31 472.40 407.42 475.65 396.70 C 478.90 385.97 480.66 376.28 482.20 363.25 C 483.74 350.22 486.06 337.34 486.00 321.00 C 485.94 304.66 485.75 276.78 485.00 260.00 C 484.25 243.22 488.20 217.65 483.75 205.25 C 479.29 192.86 456.62 195.11 454.21 206.77 C 451.80 218.42 455.57 246.62 454.00 262.00
C 438.21 246.47 423.63 240.37 401.67 240.67 C 379.71 240.96 369.39 249.95 352.92 263.91 C 336.45 277.88 322.05 292.20 305.10 305.10 C 288.14 317.99 278.22 335.49 257.00 337.00 C 235.79 338.51 225.81 316.35 207.70 312.35 C 189.58 308.35 165.52 310.37 152.77 320.43 C 140.02 330.49 122.77 340.33 108.92 349.91 C 95.07 359.50 79.36 369.92 65.00 380.00
M 77.00 411.00 
C 83.54 405.53 90.47 402.08 97.25 397.20 C 104.03 392.32 110.18 387.90 117.25 383.81 C 124.33 379.72 130.36 373.65 137.30 369.30 C 144.25 364.96 150.71 360.62 157.75 356.61 C 164.80 352.60 170.01 345.58 177.30 343.29 C 184.59 340.99 196.91 341.58 202.77 345.58 C 208.63 349.57 217.26 356.76 223.75 360.39 C 230.25 364.02 237.05 368.02 246.25 368.80 C 255.44 369.58 267.17 369.70 275.25 366.81 C 283.32 363.91 288.96 360.85 296.10 355.10 C 303.24 349.35 310.73 342.00 317.90 335.90 C 325.08 329.80 332.46 323.79 339.70 317.70 C 346.94 311.61 354.04 304.78 361.30 298.30 C 368.56 291.82 376.65 287.59 383.25 280.81 C 389.86 274.03 396.36 271.67 406.67 272.33 C 416.98 273.00 421.80 276.03 428.90 283.10 C 436.00 290.17 444.07 294.47 450.90 302.10 C 457.73 309.73 452.66 331.77 452.93 341.08 C 453.20 350.38 450.66 359.27 449.81 367.25 C 448.95 375.23 445.84 383.84 443.61 391.75 C 441.37 399.67 436.35 405.86 431.77 412.77 C 427.19 419.68 420.14 428.42 412.70 432.71 C 405.26 437.01 399.64 440.81 391.70 443.71 C 383.76 446.62 375.79 447.70 367.25 449.60 C 358.71 451.51 352.56 451.43 341.92 452.07 C 331.27 452.71 314.62 454.57 301.00 454.00 C 287.38 453.43 268.10 454.30 254.00 454.00 C 239.90 453.70 220.54 454.22 207.00 454.00 C 193.46 453.78 176.90 453.60 166.31 452.35 C 155.71 451.11 150.01 451.48 141.25 449.60 C 132.48 447.73 125.30 445.41 117.25 442.61 C 109.19 439.80 104.88 435.79 97.25 431.61 C 89.62 427.42 83.74 415.85 77.00 411.00 Z"/>
</g>
<g fill="#000000" fill-opacity="1.00" stroke="None">
<path d="
M 400.00 81.00 
C 411.26 95.18 426.91 108.35 438.76 94.77 C 450.62 81.19 433.89 68.69 421.75 58.25 C 409.62 47.81 397.92 25.97 383.25 26.80 C 368.57 27.64 357.64 49.83 344.75 59.75 C 331.87 69.67 317.57 83.98 330.75 96.25 C 343.92 108.53 355.75 93.72 368.00 81.00
C 368.42 100.45 367.44 130.62 368.00 149.00 C 368.56 167.38 364.08 186.10 383.00 187.00 C 401.92 187.89 400.97 166.33 400.00 148.00 C 399.03 129.67 400.72 100.33 400.00 81.00 Z"/>
</g>
<g fill="#000000" fill-opacity="0.98" stroke="None">
<path d="
M 183.00 112.00 
C 166.69 113.71 150.48 127.89 141.57 141.23 C 132.66 154.57 131.13 175.18 136.87 191.08 C 142.61 206.99 156.82 220.32 172.70 225.29 C 188.57 230.26 209.56 231.44 222.75 220.19 C 235.94 208.95 250.37 195.76 250.20 177.25 C 250.02 158.73 247.58 141.10 233.25 128.75 C 218.91 116.41 204.27 109.77 183.00 112.00
M 186.00 144.00 
C 205.31 141.68 224.20 158.65 217.94 179.08 C 211.67 199.52 186.88 201.55 173.25 188.75 C 159.62 175.95 166.19 146.38 186.00 144.00 Z"/>
</g>
<g fill="#000000" fill-opacity="0.02" stroke="None">
<path d="
M 186.00 144.00 
C 166.19 146.38 159.62 175.95 173.25 188.75 C 186.88 201.55 211.67 199.52 217.94 179.08 C 224.20 158.65 205.31 141.68 186.00 144.00 Z"/>
</g>
<g fill="#000000" fill-opacity="0.01" stroke="None">
<path d="
M 77.00 411.00 
C 83.74 415.85 89.62 427.42 97.25 431.61 C 104.88 435.79 109.19 439.80 117.25 442.61 C 125.30 445.41 132.48 447.73 141.25 449.60 C 150.01 451.48 155.71 451.11 166.31 452.35 C 176.90 453.60 193.46 453.78 207.00 454.00 C 220.54 454.22 239.90 453.70 254.00 454.00 C 268.10 454.30 287.38 453.43 301.00 454.00 C 314.62 454.57 331.27 452.71 341.92 452.07 C 352.56 451.43 358.71 451.51 367.25 449.60 C 375.79 447.70 383.76 446.62 391.70 443.71 C 399.64 440.81 405.26 437.01 412.70 432.71 C 420.14 428.42 427.19 419.68 431.77 412.77 C 436.35 405.86 441.37 399.67 443.61 391.75 C 445.84 383.84 448.95 375.23 449.81 367.25 C 450.66 359.27 453.20 350.38 452.93 341.08 C 452.66 331.77 457.73 309.73 450.90 302.10 C 444.07 294.47 436.00 290.17 428.90 283.10 C 421.80 276.03 416.98 273.00 406.67 272.33 C 396.36 271.67 389.86 274.03 383.25 280.81 C 376.65 287.59 368.56 291.82 361.30 298.30 C 354.04 304.78 346.94 311.61 339.70 317.70 C 332.46 323.79 325.08 329.80 317.90 335.90 C 310.73 342.00 303.24 349.35 296.10 355.10 C 288.96 360.85 283.32 363.91 275.25 366.81 C 267.17 369.70 255.44 369.58 246.25 368.80 C 237.05 368.02 230.25 364.02 223.75 360.39 C 217.26 356.76 208.63 349.57 202.77 345.58 C 196.91 341.58 184.59 340.99 177.30 343.29 C 170.01 345.58 164.80 352.60 157.75 356.61 C 150.71 360.62 144.25 364.96 137.30 369.30 C 130.36 373.65 124.33 379.72 117.25 383.81 C 110.18 387.90 104.03 392.32 97.25 397.20 C 90.47 402.08 83.54 405.53 77.00 411.00 Z"/>
</g>
</svg>