<svg xmlns="http://www.w3.org/2000/svg" xmlns:v="https://svgstorm.com"
viewBox = "0 0 512 512"
width="512"
height="512">
<g fill="None" fill-opacity="0.0" stroke="#000000" stroke-opacity="0.00" stroke-width="0.3"><path d="
M 0.00 125.00 
C 0.50 125.00 1.00 125.00 1.00 125.00
C 3.08 102.45 17.06 84.46 38.25 71.20 C 59.44 57.94 90.96 60.93 129.00 61.00 C 167.04 61.07 216.89 61.01 256.00 61.00 C 295.11 60.99 344.97 61.11 383.00 61.00 C 421.03 60.89 452.57 57.95 473.77 71.24 C 494.97 84.52 508.72 101.80 511.00 125.00
C 511.03 125.12 512.00 125.00 512.00 125.00
L 512.00 0.00
L 0.00 0.00
L 0.00 125.00 Z"/>
</g>
<g fill="None" fill-opacity="0.0" stroke="#000000" stroke-opacity="1.00" stroke-width="0.3"><path d="
M 1.00 125.00 
C 0.80 127.22 1.90 130.60 0.00 132.00
L 0.00 384.00
C 4.00 401.71 5.69 410.39 18.75 424.25 C 31.81 438.11 38.41 444.47 55.75 448.39 C 73.10 452.32 102.01 450.88 127.00 451.00 C 151.99 451.12 185.67 450.93 212.00 451.00 C 238.33 451.07 270.66 450.93 297.00 451.00 C 323.34 451.07 358.08 450.88 383.00 451.00 C 407.92 451.12 437.61 451.84 454.77 448.42 C 471.93 445.01 479.78 438.95 493.30 425.30 C 506.81 411.65 506.10 402.63 512.00 386.00
L 512.00 131.00
C 510.27 129.85 511.19 126.89 511.00 125.00
C 508.72 101.80 494.97 84.52 473.77 71.24 C 452.57 57.95 421.03 60.89 383.00 61.00 C 344.97 61.11 295.11 60.99 256.00 61.00 C 216.89 61.01 167.04 61.07 129.00 61.00 C 90.96 60.93 59.44 57.94 38.25 71.20 C 17.06 84.46 3.08 102.45 1.00 125.00
M 67.00 91.00 
C 85.00 89.38 104.96 91.71 125.00 91.00 C 145.04 90.29 167.64 91.30 188.00 91.00 C 208.36 90.70 229.63 91.09 250.00 91.00 C 270.37 90.91 292.93 90.94 313.00 91.00 C 333.07 91.06 355.78 90.74 375.00 91.00 C 394.22 91.26 420.63 90.38 438.00 91.00 C 455.37 91.62 458.88 95.55 470.25 106.75 C 481.62 117.96 481.35 123.97 482.00 142.00 C 482.65 160.03 481.73 184.77 482.00 204.00 C 482.27 223.23 481.93 247.68 482.00 267.00 C 482.07 286.32 482.09 310.62 482.00 329.00 C 481.91 347.38 483.06 372.12 480.24 386.25 C 477.42 400.38 472.75 406.67 460.70 414.71 C 448.64 422.76 434.94 420.66 416.00 421.00 C 397.06 421.34 373.92 420.85 354.00 421.00 C 334.08 421.15 311.27 420.94 291.00 421.00 C 270.73 421.06 249.24 421.00 229.00 421.00 C 208.76 421.00 185.82 421.06 166.00 421.00 C 146.18 420.94 122.69 421.15 104.00 421.00 C 85.31 420.85 68.08 422.65 57.08 416.87 C 46.09 411.09 36.48 404.13 32.29 391.70 C 28.10 379.27 30.53 359.40 30.00 341.00 C 29.47 322.60 30.24 298.40 30.00 279.00 C 29.76 259.60 30.12 235.42 30.00 216.00 C 29.88 196.58 30.08 172.46 30.00 154.00 C 29.92 135.54 29.20 122.71 37.13 112.08 C 45.06 101.45 55.16 92.07 67.00 91.00 Z"/>
</g>
<g fill="None" fill-opacity="0.0" stroke="#000000" stroke-opacity="0.00" stroke-width="0.3"><path d="
M 67.00 91.00 
C 55.16 92.07 45.06 101.45 37.13 112.08 C 29.20 122.71 29.92 135.54 30.00 154.00 C 30.08 172.46 29.88 196.58 30.00 216.00 C 30.12 235.42 29.76 259.60 30.00 279.00 C 30.24 298.40 29.47 322.60 30.00 341.00 C 30.53 359.40 28.10 379.27 32.29 391.70 C 36.48 404.13 46.09 411.09 57.08 416.87 C 68.08 422.65 85.31 420.85 104.00 421.00 C 122.69 421.15 146.18 420.94 166.00 421.00 C 185.82 421.06 208.76 421.00 229.00 421.00 C 249.24 421.00 270.73 421.06 291.00 421.00 C 311.27 420.94 334.08 421.15 354.00 421.00 C 373.92 420.85 397.06 421.34 416.00 421.00 C 434.94 420.66 448.64 422.76 460.70 414.71 C 472.75 406.67 477.42 400.38 480.24 386.25 C 483.06 372.12 481.91 347.38 482.00 329.00 C 482.09 310.62 482.07 286.32 482.00 267.00 C 481.93 247.68 482.27 223.23 482.00 204.00 C 481.73 184.77 482.65 160.03 482.00 142.00 C 481.35 123.97 481.62 117.96 470.25 106.75 C 458.88 95.55 455.37 91.62 438.00 91.00 C 420.63 90.38 394.22 91.26 375.00 91.00 C 355.78 90.74 333.07 91.06 313.00 91.00 C 292.93 90.94 270.37 90.91 250.00 91.00 C 229.63 91.09 208.36 90.70 188.00 91.00 C 167.64 91.30 145.04 90.29 125.00 91.00 C 104.96 91.71 85.00 89.38 67.00 91.00
M 207.00 166.00 
C 217.92 162.92 228.23 174.67 237.25 179.19 C 246.27 183.72 257.42 192.70 266.75 197.39 C 276.09 202.09 286.51 211.65 295.75 216.59 C 304.99 221.52 316.61 229.35 325.25 234.19 C 333.89 239.03 349.92 248.33 345.80 260.25 C 341.68 272.17 326.77 275.36 318.23 282.24 C 309.69 289.11 298.08 293.69 289.08 300.13 C 280.08 306.57 268.65 312.59 259.70 318.71 C 250.74 324.84 238.93 330.88 230.70 336.71 C 222.47 342.55 207.74 352.20 199.70 340.30 C 191.66 328.39 196.91 302.05 196.00 283.00 C 195.09 263.95 195.89 231.62 196.00 213.00 C 196.11 194.38 191.21 170.45 206.30 166.29 Z"/>
</g>
<g fill="None" fill-opacity="0.0" stroke="#000000" stroke-opacity="0.59" stroke-width="0.3"><path d="
M 0.00 132.00 
C 1.90 130.60 0.80 127.22 1.00 125.00
C 1.00 125.00 0.50 125.00 0.00 125.00
L 0.00 132.00 Z"/>
</g>
<g fill="None" fill-opacity="0.0" stroke="#000000" stroke-opacity="0.53" stroke-width="0.3"><path d="
M 512.00 131.00 
L 512.00 125.00
C 512.00 125.00 511.03 125.12 511.00 125.00
C 511.19 126.89 510.27 129.85 512.00 131.00 Z"/>
</g>
<g fill="None" fill-opacity="0.0" stroke="#000000" stroke-opacity="0.99" stroke-width="0.3"><path d="
M 206.30 166.29 
C 191.21 170.45 196.11 194.38 196.00 213.00 C 195.89 231.62 195.09 263.95 196.00 283.00 C 196.91 302.05 191.66 328.39 199.70 340.30 C 207.74 352.20 222.47 342.55 230.70 336.71 C 238.93 330.88 250.74 324.84 259.70 318.71 C 268.65 312.59 280.08 306.57 289.08 300.13 C 298.08 293.69 309.69 289.11 318.23 282.24 C 326.77 275.36 341.68 272.17 345.80 260.25 C 349.92 248.33 333.89 239.03 325.25 234.19 C 316.61 229.35 304.99 221.52 295.75 216.59 C 286.51 211.65 276.09 202.09 266.75 197.39 C 257.42 192.70 246.27 183.72 237.25 179.19 C 228.23 174.67 217.92 162.92 207.00 166.00
M 303.00 255.00 
C 277.54 273.11 252.55 286.96 226.00 304.00
C 226.00 272.00 226.00 240.00 226.00 208.00
C 239.63 215.59 251.23 224.97 264.25 232.75 C 277.28 240.53 288.49 247.77 303.00 255.00 Z"/>
</g>
<g fill="None" fill-opacity="0.0" stroke="#000000" stroke-opacity="0.02" stroke-width="0.3"><path d="
M 303.00 255.00 
C 288.49 247.77 277.28 240.53 264.25 232.75 C 251.23 224.97 239.63 215.59 226.00 208.00
C 226.00 240.00 226.00 272.00 226.00 304.00
C 252.55 286.96 277.54 273.11 303.00 255.00 Z"/>
</g>
<g fill="None" fill-opacity="0.0" stroke="#000000" stroke-opacity="0.00" stroke-width="0.3"><path d="
M 0.00 512.00 
L 512.00 512.00
L 512.00 386.00
C 506.10 402.63 506.81 411.65 493.30 425.30 C 479.78 438.95 471.93 445.01 454.77 448.42 C 437.61 451.84 407.92 451.12 383.00 451.00 C 358.08 450.88 323.34 451.07 297.00 451.00 C 270.66 450.93 238.33 451.07 212.00 451.00 C 185.67 450.93 151.99 451.12 127.00 451.00 C 102.01 450.88 73.10 452.32 55.75 448.39 C 38.41 444.47 31.81 438.11 18.75 424.25 C 5.69 410.39 4.00 401.71 0.00 384.00
L 0.00 512.00 Z"/>
</g>
<g fill="#000000" fill-opacity="0.00" stroke="None">
<path d="
M 0.00 125.00 
C 0.50 125.00 1.00 125.00 1.00 125.00
C 3.08 102.45 17.06 84.46 38.25 71.20 C 59.44 57.94 90.96 60.93 129.00 61.00 C 167.04 61.07 216.89 61.01 256.00 61.00 C 295.11 60.99 344.97 61.11 383.00 61.00 C 421.03 60.89 452.57 57.95 473.77 71.24 C 494.97 84.52 508.72 101.80 511.00 125.00
C 511.03 125.12 512.00 125.00 512.00 125.00
L 512.00 0.00
L 0.00 0.00
L 0.00 125.00 Z"/>
</g>
<g fill="#000000" fill-opacity="1.00" stroke="None">
<path d="
M 1.00 125.00 
C 0.80 127.22 1.90 130.60 0.00 132.00
L 0.00 384.00
C 4.00 401.71 5.69 410.39 18.75 424.25 C 31.81 438.11 38.41 444.47 55.75 448.39 C 73.10 452.32 102.01 450.88 127.00 451.00 C 151.99 451.12 185.67 450.93 212.00 451.00 C 238.33 451.07 270.66 450.93 297.00 451.00 C 323.34 451.07 358.08 450.88 383.00 451.00 C 407.92 451.12 437.61 451.84 454.77 448.42 C 471.93 445.01 479.78 438.95 493.30 425.30 C 506.81 411.65 506.10 402.63 512.00 386.00
L 512.00 131.00
C 510.27 129.85 511.19 126.89 511.00 125.00
C 508.72 101.80 494.97 84.52 473.77 71.24 C 452.57 57.95 421.03 60.89 383.00 61.00 C 344.97 61.11 295.11 60.99 256.00 61.00 C 216.89 61.01 167.04 61.07 129.00 61.00 C 90.96 60.93 59.44 57.94 38.25 71.20 C 17.06 84.46 3.08 102.45 1.00 125.00
M 67.00 91.00 
C 85.00 89.38 104.96 91.71 125.00 91.00 C 145.04 90.29 167.64 91.30 188.00 91.00 C 208.36 90.70 229.63 91.09 250.00 91.00 C 270.37 90.91 292.93 90.94 313.00 91.00 C 333.07 91.06 355.78 90.74 375.00 91.00 C 394.22 91.26 420.63 90.38 438.00 91.00 C 455.37 91.62 458.88 95.55 470.25 106.75 C 481.62 117.96 481.35 123.97 482.00 142.00 C 482.65 160.03 481.73 184.77 482.00 204.00 C 482.27 223.23 481.93 247.68 482.00 267.00 C 482.07 286.32 482.09 310.62 482.00 329.00 C 481.91 347.38 483.06 372.12 480.24 386.25 C 477.42 400.38 472.75 406.67 460.70 414.71 C 448.64 422.76 434.94 420.66 416.00 421.00 C 397.06 421.34 373.92 420.85 354.00 421.00 C 334.08 421.15 311.27 420.94 291.00 421.00 C 270.73 421.06 249.24 421.00 229.00 421.00 C 208.76 421.00 185.82 421.06 166.00 421.00 C 146.18 420.94 122.69 421.15 104.00 421.00 C 85.31 420.85 68.08 422.65 57.08 416.87 C 46.09 411.09 36.48 404.13 32.29 391.70 C 28.10 379.27 30.53 359.40 30.00 341.00 C 29.47 322.60 30.24 298.40 30.00 279.00 C 29.76 259.60 30.12 235.42 30.00 216.00 C 29.88 196.58 30.08 172.46 30.00 154.00 C 29.92 135.54 29.20 122.71 37.13 112.08 C 45.06 101.45 55.16 92.07 67.00 91.00 Z"/>
</g>
<g fill="#000000" fill-opacity="0.00" stroke="None">
<path d="
M 67.00 91.00 
C 55.16 92.07 45.06 101.45 37.13 112.08 C 29.20 122.71 29.92 135.54 30.00 154.00 C 30.08 172.46 29.88 196.58 30.00 216.00 C 30.12 235.42 29.76 259.60 30.00 279.00 C 30.24 298.40 29.47 322.60 30.00 341.00 C 30.53 359.40 28.10 379.27 32.29 391.70 C 36.48 404.13 46.09 411.09 57.08 416.87 C 68.08 422.65 85.31 420.85 104.00 421.00 C 122.69 421.15 146.18 420.94 166.00 421.00 C 185.82 421.06 208.76 421.00 229.00 421.00 C 249.24 421.00 270.73 421.06 291.00 421.00 C 311.27 420.94 334.08 421.15 354.00 421.00 C 373.92 420.85 397.06 421.34 416.00 421.00 C 434.94 420.66 448.64 422.76 460.70 414.71 C 472.75 406.67 477.42 400.38 480.24 386.25 C 483.06 372.12 481.91 347.38 482.00 329.00 C 482.09 310.62 482.07 286.32 482.00 267.00 C 481.93 247.68 482.27 223.23 482.00 204.00 C 481.73 184.77 482.65 160.03 482.00 142.00 C 481.35 123.97 481.62 117.96 470.25 106.75 C 458.88 95.55 455.37 91.62 438.00 91.00 C 420.63 90.38 394.22 91.26 375.00 91.00 C 355.78 90.74 333.07 91.06 313.00 91.00 C 292.93 90.94 270.37 90.91 250.00 91.00 C 229.63 91.09 208.36 90.70 188.00 91.00 C 167.64 91.30 145.04 90.29 125.00 91.00 C 104.96 91.71 85.00 89.38 67.00 91.00
M 207.00 166.00 
C 217.92 162.92 228.23 174.67 237.25 179.19 C 246.27 183.72 257.42 192.70 266.75 197.39 C 276.09 202.09 286.51 211.65 295.75 216.59 C 304.99 221.52 316.61 229.35 325.25 234.19 C 333.89 239.03 349.92 248.33 345.80 260.25 C 341.68 272.17 326.77 275.36 318.23 282.24 C 309.69 289.11 298.08 293.69 289.08 300.13 C 280.08 306.57 268.65 312.59 259.70 318.71 C 250.74 324.84 238.93 330.88 230.70 336.71 C 222.47 342.55 207.74 352.20 199.70 340.30 C 191.66 328.39 196.91 302.05 196.00 283.00 C 195.09 263.95 195.89 231.62 196.00 213.00 C 196.11 194.38 191.21 170.45 206.30 166.29 Z"/>
</g>
<g fill="#000000" fill-opacity="0.59" stroke="None">
<path d="
M 0.00 132.00 
C 1.90 130.60 0.80 127.22 1.00 125.00
C 1.00 125.00 0.50 125.00 0.00 125.00
L 0.00 132.00 Z"/>
</g>
<g fill="#000000" fill-opacity="0.53" stroke="None">
<path d="
M 512.00 131.00 
L 512.00 125.00
C 512.00 125.00 511.03 125.12 511.00 125.00
C 511.19 126.89 510.27 129.85 512.00 131.00 Z"/>
</g>
<g fill="#000000" fill-opacity="0.99" stroke="None">
<path d="
M 206.30 166.29 
C 191.21 170.45 196.11 194.38 196.00 213.00 C 195.89 231.62 195.09 263.95 196.00 283.00 C 196.91 302.05 191.66 328.39 199.70 340.30 C 207.74 352.20 222.47 342.55 230.70 336.71 C 238.93 330.88 250.74 324.84 259.70 318.71 C 268.65 312.59 280.08 306.57 289.08 300.13 C 298.08 293.69 309.69 289.11 318.23 282.24 C 326.77 275.36 341.68 272.17 345.80 260.25 C 349.92 248.33 333.89 239.03 325.25 234.19 C 316.61 229.35 304.99 221.52 295.75 216.59 C 286.51 211.65 276.09 202.09 266.75 197.39 C 257.42 192.70 246.27 183.72 237.25 179.19 C 228.23 174.67 217.92 162.92 207.00 166.00
M 303.00 255.00 
C 277.54 273.11 252.55 286.96 226.00 304.00
C 226.00 272.00 226.00 240.00 226.00 208.00
C 239.63 215.59 251.23 224.97 264.25 232.75 C 277.28 240.53 288.49 247.77 303.00 255.00 Z"/>
</g>
<g fill="#000000" fill-opacity="0.02" stroke="None">
<path d="
M 303.00 255.00 
C 288.49 247.77 277.28 240.53 264.25 232.75 C 251.23 224.97 239.63 215.59 226.00 208.00
C 226.00 240.00 226.00 272.00 226.00 304.00
C 252.55 286.96 277.54 273.11 303.00 255.00 Z"/>
</g>
<g fill="#000000" fill-opacity="0.00" stroke="None">
<path d="
M 0.00 512.00 
L 512.00 512.00
L 512.00 386.00
C 506.10 402.63 506.81 411.65 493.30 425.30 C 479.78 438.95 471.93 445.01 454.77 448.42 C 437.61 451.84 407.92 451.12 383.00 451.00 C 358.08 450.88 323.34 451.07 297.00 451.00 C 270.66 450.93 238.33 451.07 212.00 451.00 C 185.67 450.93 151.99 451.12 127.00 451.00 C 102.01 450.88 73.10 452.32 55.75 448.39 C 38.41 444.47 31.81 438.11 18.75 424.25 C 5.69 410.39 4.00 401.71 0.00 384.00
L 0.00 512.00 Z"/>
</g>
</svg>